# xmcd
#
# Track frame offsets: 
#        183
#        22740
#        56960
#        75385
#        89103
#        107088
#        118275
#        142318
#        162275
#
# Disc length: 2585 seconds
#
# Revision: 0
# Processed by: cddbd v1.5.2PL0 Copyright (c) Steve Scherf et al.
# Submitted via: ExactAudioCopy v0.99pb5
#
DISCID=7c0a1709
DTITLE=Allman Brothers Band - Night Riding
DYEAR=1973
DGENRE=Blues
TTITLE0=Ramblin'Man
TTITLE1=Pegusus
TTITLE2=Revival (love is everywhere)
TTITLE3=Midnight Rider
TTITLE4=Melissa
TTITLE5=Don't Want You No More
TTITLE6=It's Not My Cross To Bear
TTITLE7=Statesbooro Blues
TTITLE8=Jessica
EXTD=
EXTT0=
EXTT1=
EXTT2=
EXTT3=
EXTT4=
EXTT5=
EXTT6=
EXTT7=
EXTT8=
PLAYORDER=
